<svg xmlns="http://www.w3.org/2000/svg" aria-hidden="true" style="display:none">
  <symbol id="home" viewBox="0 0 24 24"><path d="m3 10 9-7 9 7v10a1 1 0 0 1-1 1H4a1 1 0 0 1-1-1zM9 21v-6h6v6" fill="none" stroke="currentColor" stroke-width="1.8" stroke-linejoin="round"/></symbol>
  <symbol id="calendar" viewBox="0 0 24 24"><rect x="3" y="5" width="18" height="16" rx="2" fill="none" stroke="currentColor" stroke-width="1.8"/><path d="M7 3v4m10-4v4M3 10h18" fill="none" stroke="currentColor" stroke-width="1.8" stroke-linecap="round"/></symbol>
  <symbol id="clock" viewBox="0 0 24 24"><circle cx="12" cy="12" r="9" fill="none" stroke="currentColor" stroke-width="1.8"/><path d="M12 7v5l3.5 2" fill="none" stroke="currentColor" stroke-width="1.8" stroke-linecap="round"/></symbol>
  <symbol id="check" viewBox="0 0 24 24"><path d="m5 12 4.2 4.2L19 6.5" fill="none" stroke="currentColor" stroke-width="2" stroke-linecap="round" stroke-linejoin="round"/></symbol>
  <symbol id="settings" viewBox="0 0 24 24"><circle cx="12" cy="12" r="3" fill="none" stroke="currentColor" stroke-width="1.8"/><path d="M19.4 15a1.7 1.7 0 0 0 .34 1.88l.06.06-2.2 2.2-.06-.06a1.7 1.7 0 0 0-1.88-.34 1.7 1.7 0 0 0-1.03 1.56V20.4h-3.1v-.1A1.7 1.7 0 0 0 10.5 18.7a1.7 1.7 0 0 0-1.88.34l-.06.06-2.2-2.2.06-.06A1.7 1.7 0 0 0 6.76 15a1.7 1.7 0 0 0-1.56-1.03h-.1v-3.1h.1A1.7 1.7 0 0 0 6.76 9.84a1.7 1.7 0 0 0-.34-1.88l-.06-.06 2.2-2.2.06.06a1.7 1.7 0 0 0 1.88.34 1.7 1.7 0 0 0 1.03-1.56v-.1h3.1v.1a1.7 1.7 0 0 0 1.03 1.56 1.7 1.7 0 0 0 1.88-.34l.06-.06 2.2 2.2-.06.06a1.7 1.7 0 0 0-.34 1.88 1.7 1.7 0 0 0 1.56 1.03h.1v3.1h-.1A1.7 1.7 0 0 0 19.4 15Z" fill="none" stroke="currentColor" stroke-width="1.35" stroke-linejoin="round"/></symbol>
  <symbol id="report" viewBox="0 0 24 24"><path d="M5 3h14v18H5zM8 8h8m-8 4h8m-8 4h5" fill="none" stroke="currentColor" stroke-width="1.8" stroke-linecap="round"/></symbol>
  <symbol id="grid" viewBox="0 0 24 24"><path d="M4 4h6v6H4zm10 0h6v6h-6zM4 14h6v6H4zm10 0h6v6h-6z" fill="none" stroke="currentColor" stroke-width="1.8" stroke-linejoin="round"/></symbol>
</svg>
